M48
; DRILL file {KiCad (5.1.7)-1} date 11/21/20 17:56:58
; FORMAT={-:-/ absolute / inch / decimal}
; #@! TF.CreationDate,2020-11-21T17:56:58+01:00
; #@! TF.GenerationSoftware,Kicad,Pcbnew,(5.1.7)-1
; #@! TF.FileFunction,Plated,1,2,PTH
FMAT,2
INCH
T1C0.0118
T2C0.0157
T3C0.0217
T4C0.0335
T5C0.0394
%
G90
G05
T1
X2.4892Y-1.6112
X2.4892Y-1.9498
X2.5413Y-1.8209
X2.623Y-1.6762
X2.6447Y-1.5069
X2.8484Y-1.4882
X3.2766Y-2.1407
X3.3425Y-2.0866
X3.3514Y-2.2126
X3.5955Y-2.1811
T2
X2.4075Y-2.0935
X2.7195Y-1.8297
X2.7461Y-1.6841
X2.9232Y-1.9144
X3.087Y-1.7047
X3.4327Y-1.7488
X3.524Y-1.7488
T5
X2.2Y-1.2
X2.3Y-1.2
X2.4Y-1.2
X2.5Y-1.2
X2.6Y-1.2
X2.7Y-1.2
X2.8Y-1.2
X2.9Y-1.2
X3.0Y-1.2
X3.1Y-1.2
X3.2Y-1.2
X3.3Y-1.2
X3.4Y-1.2
X3.5Y-1.2
X3.6Y-1.2
X2.2Y-2.4
X2.3Y-2.4
X2.4Y-2.4
X2.5Y-2.4
X2.6Y-2.4
X2.7Y-2.4
X2.8Y-2.4
X2.9Y-2.4
X3.0Y-2.4
X3.1Y-2.4
X3.2Y-2.4
X3.3Y-2.4
X3.4Y-2.4
X3.5Y-2.4
X3.6Y-2.4
T3
G00X3.6171Y-1.6474
M15
G01X3.6427Y-1.6474
M16
G05
G00X3.6171Y-1.9526
M15
G01X3.6427Y-1.9526
M16
G05
T4
G00X3.4695Y-1.6533
M15
G01X3.4911Y-1.6533
M16
G05
G00X3.4695Y-1.9467
M15
G01X3.4911Y-1.9467
M16
G05
T0
M30
