%TF.GenerationSoftware,KiCad,Pcbnew,(5.1.7)-1*%
%TF.CreationDate,2020-11-21T17:57:00+01:00*%
%TF.ProjectId,SimpleTM32,53696d70-6c65-4544-9d33-322e6b696361,rev?*%
%TF.SameCoordinates,Original*%
%TF.FileFunction,Legend,Bot*%
%TF.FilePolarity,Positive*%
%FSLAX46Y46*%
G04 Gerber Fmt 4.6, Leading zero omitted, Abs format (unit mm)*
G04 Created by KiCad (PCBNEW (5.1.7)-1) date 2020-11-21 17:57:00*
%MOMM*%
%LPD*%
G01*
G04 APERTURE LIST*
%ADD10C,0.150000*%
G04 APERTURE END LIST*
D10*
X83395238Y-36961904D02*
X83347619Y-36819047D01*
X83347619Y-36580952D01*
X83395238Y-36485714D01*
X83442857Y-36438095D01*
X83538095Y-36390476D01*
X83633333Y-36390476D01*
X83728571Y-36438095D01*
X83776190Y-36485714D01*
X83823809Y-36580952D01*
X83871428Y-36771428D01*
X83919047Y-36866666D01*
X83966666Y-36914285D01*
X84061904Y-36961904D01*
X84157142Y-36961904D01*
X84252380Y-36914285D01*
X84300000Y-36866666D01*
X84347619Y-36771428D01*
X84347619Y-36533333D01*
X84300000Y-36390476D01*
X84347619Y-36057142D02*
X83347619Y-35819047D01*
X84061904Y-35628571D01*
X83347619Y-35438095D01*
X84347619Y-35200000D01*
X83442857Y-34247619D02*
X83395238Y-34295238D01*
X83347619Y-34438095D01*
X83347619Y-34533333D01*
X83395238Y-34676190D01*
X83490476Y-34771428D01*
X83585714Y-34819047D01*
X83776190Y-34866666D01*
X83919047Y-34866666D01*
X84109523Y-34819047D01*
X84204761Y-34771428D01*
X84300000Y-34676190D01*
X84347619Y-34533333D01*
X84347619Y-34438095D01*
X84300000Y-34295238D01*
X84252380Y-34247619D01*
X83347619Y-33342857D02*
X83347619Y-33819047D01*
X84347619Y-33819047D01*
X83347619Y-33009523D02*
X84347619Y-33009523D01*
X83347619Y-32438095D02*
X83919047Y-32866666D01*
X84347619Y-32438095D02*
X83776190Y-33009523D01*
X85945238Y-36619047D02*
X85897619Y-36476190D01*
X85897619Y-36238095D01*
X85945238Y-36142857D01*
X85992857Y-36095238D01*
X86088095Y-36047619D01*
X86183333Y-36047619D01*
X86278571Y-36095238D01*
X86326190Y-36142857D01*
X86373809Y-36238095D01*
X86421428Y-36428571D01*
X86469047Y-36523809D01*
X86516666Y-36571428D01*
X86611904Y-36619047D01*
X86707142Y-36619047D01*
X86802380Y-36571428D01*
X86850000Y-36523809D01*
X86897619Y-36428571D01*
X86897619Y-36190476D01*
X86850000Y-36047619D01*
X86897619Y-35714285D02*
X85897619Y-35476190D01*
X86611904Y-35285714D01*
X85897619Y-35095238D01*
X86897619Y-34857142D01*
X85897619Y-34476190D02*
X86897619Y-34476190D01*
X86897619Y-34238095D01*
X86850000Y-34095238D01*
X86754761Y-34000000D01*
X86659523Y-33952380D01*
X86469047Y-33904761D01*
X86326190Y-33904761D01*
X86135714Y-33952380D01*
X86040476Y-34000000D01*
X85945238Y-34095238D01*
X85897619Y-34238095D01*
X85897619Y-34476190D01*
X85897619Y-33476190D02*
X86897619Y-33476190D01*
X86897619Y-32809523D02*
X86897619Y-32619047D01*
X86850000Y-32523809D01*
X86754761Y-32428571D01*
X86564285Y-32380952D01*
X86230952Y-32380952D01*
X86040476Y-32428571D01*
X85945238Y-32523809D01*
X85897619Y-32619047D01*
X85897619Y-32809523D01*
X85945238Y-32904761D01*
X86040476Y-33000000D01*
X86230952Y-33047619D01*
X86564285Y-33047619D01*
X86754761Y-33000000D01*
X86850000Y-32904761D01*
X86897619Y-32809523D01*
M02*
