%TF.GenerationSoftware,KiCad,Pcbnew,(5.1.7)-1*%
%TF.CreationDate,2020-11-21T17:56:59+01:00*%
%TF.ProjectId,SimpleTM32,53696d70-6c65-4544-9d33-322e6b696361,rev?*%
%TF.SameCoordinates,Original*%
%TF.FileFunction,Paste,Top*%
%TF.FilePolarity,Positive*%
%FSLAX46Y46*%
G04 Gerber Fmt 4.6, Leading zero omitted, Abs format (unit mm)*
G04 Created by KiCad (PCBNEW (5.1.7)-1) date 2020-11-21 17:56:59*
%MOMM*%
%LPD*%
G01*
G04 APERTURE LIST*
%ADD10R,2.400000X2.000000*%
%ADD11R,0.800000X0.900000*%
%ADD12R,1.300000X0.450000*%
G04 APERTURE END LIST*
%TO.C,U2*%
G36*
G01*
X69100000Y-42220000D02*
X69100000Y-40895000D01*
G75*
G02*
X69175000Y-40820000I75000J0D01*
G01*
X69325000Y-40820000D01*
G75*
G02*
X69400000Y-40895000I0J-75000D01*
G01*
X69400000Y-42220000D01*
G75*
G02*
X69325000Y-42295000I-75000J0D01*
G01*
X69175000Y-42295000D01*
G75*
G02*
X69100000Y-42220000I0J75000D01*
G01*
G37*
G36*
G01*
X69600000Y-42220000D02*
X69600000Y-40895000D01*
G75*
G02*
X69675000Y-40820000I75000J0D01*
G01*
X69825000Y-40820000D01*
G75*
G02*
X69900000Y-40895000I0J-75000D01*
G01*
X69900000Y-42220000D01*
G75*
G02*
X69825000Y-42295000I-75000J0D01*
G01*
X69675000Y-42295000D01*
G75*
G02*
X69600000Y-42220000I0J75000D01*
G01*
G37*
G36*
G01*
X70100000Y-42220000D02*
X70100000Y-40895000D01*
G75*
G02*
X70175000Y-40820000I75000J0D01*
G01*
X70325000Y-40820000D01*
G75*
G02*
X70400000Y-40895000I0J-75000D01*
G01*
X70400000Y-42220000D01*
G75*
G02*
X70325000Y-42295000I-75000J0D01*
G01*
X70175000Y-42295000D01*
G75*
G02*
X70100000Y-42220000I0J75000D01*
G01*
G37*
G36*
G01*
X70600000Y-42220000D02*
X70600000Y-40895000D01*
G75*
G02*
X70675000Y-40820000I75000J0D01*
G01*
X70825000Y-40820000D01*
G75*
G02*
X70900000Y-40895000I0J-75000D01*
G01*
X70900000Y-42220000D01*
G75*
G02*
X70825000Y-42295000I-75000J0D01*
G01*
X70675000Y-42295000D01*
G75*
G02*
X70600000Y-42220000I0J75000D01*
G01*
G37*
G36*
G01*
X71100000Y-42220000D02*
X71100000Y-40895000D01*
G75*
G02*
X71175000Y-40820000I75000J0D01*
G01*
X71325000Y-40820000D01*
G75*
G02*
X71400000Y-40895000I0J-75000D01*
G01*
X71400000Y-42220000D01*
G75*
G02*
X71325000Y-42295000I-75000J0D01*
G01*
X71175000Y-42295000D01*
G75*
G02*
X71100000Y-42220000I0J75000D01*
G01*
G37*
G36*
G01*
X71600000Y-42220000D02*
X71600000Y-40895000D01*
G75*
G02*
X71675000Y-40820000I75000J0D01*
G01*
X71825000Y-40820000D01*
G75*
G02*
X71900000Y-40895000I0J-75000D01*
G01*
X71900000Y-42220000D01*
G75*
G02*
X71825000Y-42295000I-75000J0D01*
G01*
X71675000Y-42295000D01*
G75*
G02*
X71600000Y-42220000I0J75000D01*
G01*
G37*
G36*
G01*
X72100000Y-42220000D02*
X72100000Y-40895000D01*
G75*
G02*
X72175000Y-40820000I75000J0D01*
G01*
X72325000Y-40820000D01*
G75*
G02*
X72400000Y-40895000I0J-75000D01*
G01*
X72400000Y-42220000D01*
G75*
G02*
X72325000Y-42295000I-75000J0D01*
G01*
X72175000Y-42295000D01*
G75*
G02*
X72100000Y-42220000I0J75000D01*
G01*
G37*
G36*
G01*
X72600000Y-42220000D02*
X72600000Y-40895000D01*
G75*
G02*
X72675000Y-40820000I75000J0D01*
G01*
X72825000Y-40820000D01*
G75*
G02*
X72900000Y-40895000I0J-75000D01*
G01*
X72900000Y-42220000D01*
G75*
G02*
X72825000Y-42295000I-75000J0D01*
G01*
X72675000Y-42295000D01*
G75*
G02*
X72600000Y-42220000I0J75000D01*
G01*
G37*
G36*
G01*
X73100000Y-42220000D02*
X73100000Y-40895000D01*
G75*
G02*
X73175000Y-40820000I75000J0D01*
G01*
X73325000Y-40820000D01*
G75*
G02*
X73400000Y-40895000I0J-75000D01*
G01*
X73400000Y-42220000D01*
G75*
G02*
X73325000Y-42295000I-75000J0D01*
G01*
X73175000Y-42295000D01*
G75*
G02*
X73100000Y-42220000I0J75000D01*
G01*
G37*
G36*
G01*
X73600000Y-42220000D02*
X73600000Y-40895000D01*
G75*
G02*
X73675000Y-40820000I75000J0D01*
G01*
X73825000Y-40820000D01*
G75*
G02*
X73900000Y-40895000I0J-75000D01*
G01*
X73900000Y-42220000D01*
G75*
G02*
X73825000Y-42295000I-75000J0D01*
G01*
X73675000Y-42295000D01*
G75*
G02*
X73600000Y-42220000I0J75000D01*
G01*
G37*
G36*
G01*
X74100000Y-42220000D02*
X74100000Y-40895000D01*
G75*
G02*
X74175000Y-40820000I75000J0D01*
G01*
X74325000Y-40820000D01*
G75*
G02*
X74400000Y-40895000I0J-75000D01*
G01*
X74400000Y-42220000D01*
G75*
G02*
X74325000Y-42295000I-75000J0D01*
G01*
X74175000Y-42295000D01*
G75*
G02*
X74100000Y-42220000I0J75000D01*
G01*
G37*
G36*
G01*
X74600000Y-42220000D02*
X74600000Y-40895000D01*
G75*
G02*
X74675000Y-40820000I75000J0D01*
G01*
X74825000Y-40820000D01*
G75*
G02*
X74900000Y-40895000I0J-75000D01*
G01*
X74900000Y-42220000D01*
G75*
G02*
X74825000Y-42295000I-75000J0D01*
G01*
X74675000Y-42295000D01*
G75*
G02*
X74600000Y-42220000I0J75000D01*
G01*
G37*
G36*
G01*
X75425000Y-43045000D02*
X75425000Y-42895000D01*
G75*
G02*
X75500000Y-42820000I75000J0D01*
G01*
X76825000Y-42820000D01*
G75*
G02*
X76900000Y-42895000I0J-75000D01*
G01*
X76900000Y-43045000D01*
G75*
G02*
X76825000Y-43120000I-75000J0D01*
G01*
X75500000Y-43120000D01*
G75*
G02*
X75425000Y-43045000I0J75000D01*
G01*
G37*
G36*
G01*
X75425000Y-43545000D02*
X75425000Y-43395000D01*
G75*
G02*
X75500000Y-43320000I75000J0D01*
G01*
X76825000Y-43320000D01*
G75*
G02*
X76900000Y-43395000I0J-75000D01*
G01*
X76900000Y-43545000D01*
G75*
G02*
X76825000Y-43620000I-75000J0D01*
G01*
X75500000Y-43620000D01*
G75*
G02*
X75425000Y-43545000I0J75000D01*
G01*
G37*
G36*
G01*
X75425000Y-44045000D02*
X75425000Y-43895000D01*
G75*
G02*
X75500000Y-43820000I75000J0D01*
G01*
X76825000Y-43820000D01*
G75*
G02*
X76900000Y-43895000I0J-75000D01*
G01*
X76900000Y-44045000D01*
G75*
G02*
X76825000Y-44120000I-75000J0D01*
G01*
X75500000Y-44120000D01*
G75*
G02*
X75425000Y-44045000I0J75000D01*
G01*
G37*
G36*
G01*
X75425000Y-44545000D02*
X75425000Y-44395000D01*
G75*
G02*
X75500000Y-44320000I75000J0D01*
G01*
X76825000Y-44320000D01*
G75*
G02*
X76900000Y-44395000I0J-75000D01*
G01*
X76900000Y-44545000D01*
G75*
G02*
X76825000Y-44620000I-75000J0D01*
G01*
X75500000Y-44620000D01*
G75*
G02*
X75425000Y-44545000I0J75000D01*
G01*
G37*
G36*
G01*
X75425000Y-45045000D02*
X75425000Y-44895000D01*
G75*
G02*
X75500000Y-44820000I75000J0D01*
G01*
X76825000Y-44820000D01*
G75*
G02*
X76900000Y-44895000I0J-75000D01*
G01*
X76900000Y-45045000D01*
G75*
G02*
X76825000Y-45120000I-75000J0D01*
G01*
X75500000Y-45120000D01*
G75*
G02*
X75425000Y-45045000I0J75000D01*
G01*
G37*
G36*
G01*
X75425000Y-45545000D02*
X75425000Y-45395000D01*
G75*
G02*
X75500000Y-45320000I75000J0D01*
G01*
X76825000Y-45320000D01*
G75*
G02*
X76900000Y-45395000I0J-75000D01*
G01*
X76900000Y-45545000D01*
G75*
G02*
X76825000Y-45620000I-75000J0D01*
G01*
X75500000Y-45620000D01*
G75*
G02*
X75425000Y-45545000I0J75000D01*
G01*
G37*
G36*
G01*
X75425000Y-46045000D02*
X75425000Y-45895000D01*
G75*
G02*
X75500000Y-45820000I75000J0D01*
G01*
X76825000Y-45820000D01*
G75*
G02*
X76900000Y-45895000I0J-75000D01*
G01*
X76900000Y-46045000D01*
G75*
G02*
X76825000Y-46120000I-75000J0D01*
G01*
X75500000Y-46120000D01*
G75*
G02*
X75425000Y-46045000I0J75000D01*
G01*
G37*
G36*
G01*
X75425000Y-46545000D02*
X75425000Y-46395000D01*
G75*
G02*
X75500000Y-46320000I75000J0D01*
G01*
X76825000Y-46320000D01*
G75*
G02*
X76900000Y-46395000I0J-75000D01*
G01*
X76900000Y-46545000D01*
G75*
G02*
X76825000Y-46620000I-75000J0D01*
G01*
X75500000Y-46620000D01*
G75*
G02*
X75425000Y-46545000I0J75000D01*
G01*
G37*
G36*
G01*
X75425000Y-47045000D02*
X75425000Y-46895000D01*
G75*
G02*
X75500000Y-46820000I75000J0D01*
G01*
X76825000Y-46820000D01*
G75*
G02*
X76900000Y-46895000I0J-75000D01*
G01*
X76900000Y-47045000D01*
G75*
G02*
X76825000Y-47120000I-75000J0D01*
G01*
X75500000Y-47120000D01*
G75*
G02*
X75425000Y-47045000I0J75000D01*
G01*
G37*
G36*
G01*
X75425000Y-47545000D02*
X75425000Y-47395000D01*
G75*
G02*
X75500000Y-47320000I75000J0D01*
G01*
X76825000Y-47320000D01*
G75*
G02*
X76900000Y-47395000I0J-75000D01*
G01*
X76900000Y-47545000D01*
G75*
G02*
X76825000Y-47620000I-75000J0D01*
G01*
X75500000Y-47620000D01*
G75*
G02*
X75425000Y-47545000I0J75000D01*
G01*
G37*
G36*
G01*
X75425000Y-48045000D02*
X75425000Y-47895000D01*
G75*
G02*
X75500000Y-47820000I75000J0D01*
G01*
X76825000Y-47820000D01*
G75*
G02*
X76900000Y-47895000I0J-75000D01*
G01*
X76900000Y-48045000D01*
G75*
G02*
X76825000Y-48120000I-75000J0D01*
G01*
X75500000Y-48120000D01*
G75*
G02*
X75425000Y-48045000I0J75000D01*
G01*
G37*
G36*
G01*
X75425000Y-48545000D02*
X75425000Y-48395000D01*
G75*
G02*
X75500000Y-48320000I75000J0D01*
G01*
X76825000Y-48320000D01*
G75*
G02*
X76900000Y-48395000I0J-75000D01*
G01*
X76900000Y-48545000D01*
G75*
G02*
X76825000Y-48620000I-75000J0D01*
G01*
X75500000Y-48620000D01*
G75*
G02*
X75425000Y-48545000I0J75000D01*
G01*
G37*
G36*
G01*
X74600000Y-50545000D02*
X74600000Y-49220000D01*
G75*
G02*
X74675000Y-49145000I75000J0D01*
G01*
X74825000Y-49145000D01*
G75*
G02*
X74900000Y-49220000I0J-75000D01*
G01*
X74900000Y-50545000D01*
G75*
G02*
X74825000Y-50620000I-75000J0D01*
G01*
X74675000Y-50620000D01*
G75*
G02*
X74600000Y-50545000I0J75000D01*
G01*
G37*
G36*
G01*
X74100000Y-50545000D02*
X74100000Y-49220000D01*
G75*
G02*
X74175000Y-49145000I75000J0D01*
G01*
X74325000Y-49145000D01*
G75*
G02*
X74400000Y-49220000I0J-75000D01*
G01*
X74400000Y-50545000D01*
G75*
G02*
X74325000Y-50620000I-75000J0D01*
G01*
X74175000Y-50620000D01*
G75*
G02*
X74100000Y-50545000I0J75000D01*
G01*
G37*
G36*
G01*
X73600000Y-50545000D02*
X73600000Y-49220000D01*
G75*
G02*
X73675000Y-49145000I75000J0D01*
G01*
X73825000Y-49145000D01*
G75*
G02*
X73900000Y-49220000I0J-75000D01*
G01*
X73900000Y-50545000D01*
G75*
G02*
X73825000Y-50620000I-75000J0D01*
G01*
X73675000Y-50620000D01*
G75*
G02*
X73600000Y-50545000I0J75000D01*
G01*
G37*
G36*
G01*
X73100000Y-50545000D02*
X73100000Y-49220000D01*
G75*
G02*
X73175000Y-49145000I75000J0D01*
G01*
X73325000Y-49145000D01*
G75*
G02*
X73400000Y-49220000I0J-75000D01*
G01*
X73400000Y-50545000D01*
G75*
G02*
X73325000Y-50620000I-75000J0D01*
G01*
X73175000Y-50620000D01*
G75*
G02*
X73100000Y-50545000I0J75000D01*
G01*
G37*
G36*
G01*
X72600000Y-50545000D02*
X72600000Y-49220000D01*
G75*
G02*
X72675000Y-49145000I75000J0D01*
G01*
X72825000Y-49145000D01*
G75*
G02*
X72900000Y-49220000I0J-75000D01*
G01*
X72900000Y-50545000D01*
G75*
G02*
X72825000Y-50620000I-75000J0D01*
G01*
X72675000Y-50620000D01*
G75*
G02*
X72600000Y-50545000I0J75000D01*
G01*
G37*
G36*
G01*
X72100000Y-50545000D02*
X72100000Y-49220000D01*
G75*
G02*
X72175000Y-49145000I75000J0D01*
G01*
X72325000Y-49145000D01*
G75*
G02*
X72400000Y-49220000I0J-75000D01*
G01*
X72400000Y-50545000D01*
G75*
G02*
X72325000Y-50620000I-75000J0D01*
G01*
X72175000Y-50620000D01*
G75*
G02*
X72100000Y-50545000I0J75000D01*
G01*
G37*
G36*
G01*
X71600000Y-50545000D02*
X71600000Y-49220000D01*
G75*
G02*
X71675000Y-49145000I75000J0D01*
G01*
X71825000Y-49145000D01*
G75*
G02*
X71900000Y-49220000I0J-75000D01*
G01*
X71900000Y-50545000D01*
G75*
G02*
X71825000Y-50620000I-75000J0D01*
G01*
X71675000Y-50620000D01*
G75*
G02*
X71600000Y-50545000I0J75000D01*
G01*
G37*
G36*
G01*
X71100000Y-50545000D02*
X71100000Y-49220000D01*
G75*
G02*
X71175000Y-49145000I75000J0D01*
G01*
X71325000Y-49145000D01*
G75*
G02*
X71400000Y-49220000I0J-75000D01*
G01*
X71400000Y-50545000D01*
G75*
G02*
X71325000Y-50620000I-75000J0D01*
G01*
X71175000Y-50620000D01*
G75*
G02*
X71100000Y-50545000I0J75000D01*
G01*
G37*
G36*
G01*
X70600000Y-50545000D02*
X70600000Y-49220000D01*
G75*
G02*
X70675000Y-49145000I75000J0D01*
G01*
X70825000Y-49145000D01*
G75*
G02*
X70900000Y-49220000I0J-75000D01*
G01*
X70900000Y-50545000D01*
G75*
G02*
X70825000Y-50620000I-75000J0D01*
G01*
X70675000Y-50620000D01*
G75*
G02*
X70600000Y-50545000I0J75000D01*
G01*
G37*
G36*
G01*
X70100000Y-50545000D02*
X70100000Y-49220000D01*
G75*
G02*
X70175000Y-49145000I75000J0D01*
G01*
X70325000Y-49145000D01*
G75*
G02*
X70400000Y-49220000I0J-75000D01*
G01*
X70400000Y-50545000D01*
G75*
G02*
X70325000Y-50620000I-75000J0D01*
G01*
X70175000Y-50620000D01*
G75*
G02*
X70100000Y-50545000I0J75000D01*
G01*
G37*
G36*
G01*
X69600000Y-50545000D02*
X69600000Y-49220000D01*
G75*
G02*
X69675000Y-49145000I75000J0D01*
G01*
X69825000Y-49145000D01*
G75*
G02*
X69900000Y-49220000I0J-75000D01*
G01*
X69900000Y-50545000D01*
G75*
G02*
X69825000Y-50620000I-75000J0D01*
G01*
X69675000Y-50620000D01*
G75*
G02*
X69600000Y-50545000I0J75000D01*
G01*
G37*
G36*
G01*
X69100000Y-50545000D02*
X69100000Y-49220000D01*
G75*
G02*
X69175000Y-49145000I75000J0D01*
G01*
X69325000Y-49145000D01*
G75*
G02*
X69400000Y-49220000I0J-75000D01*
G01*
X69400000Y-50545000D01*
G75*
G02*
X69325000Y-50620000I-75000J0D01*
G01*
X69175000Y-50620000D01*
G75*
G02*
X69100000Y-50545000I0J75000D01*
G01*
G37*
G36*
G01*
X67100000Y-48545000D02*
X67100000Y-48395000D01*
G75*
G02*
X67175000Y-48320000I75000J0D01*
G01*
X68500000Y-48320000D01*
G75*
G02*
X68575000Y-48395000I0J-75000D01*
G01*
X68575000Y-48545000D01*
G75*
G02*
X68500000Y-48620000I-75000J0D01*
G01*
X67175000Y-48620000D01*
G75*
G02*
X67100000Y-48545000I0J75000D01*
G01*
G37*
G36*
G01*
X67100000Y-48045000D02*
X67100000Y-47895000D01*
G75*
G02*
X67175000Y-47820000I75000J0D01*
G01*
X68500000Y-47820000D01*
G75*
G02*
X68575000Y-47895000I0J-75000D01*
G01*
X68575000Y-48045000D01*
G75*
G02*
X68500000Y-48120000I-75000J0D01*
G01*
X67175000Y-48120000D01*
G75*
G02*
X67100000Y-48045000I0J75000D01*
G01*
G37*
G36*
G01*
X67100000Y-47545000D02*
X67100000Y-47395000D01*
G75*
G02*
X67175000Y-47320000I75000J0D01*
G01*
X68500000Y-47320000D01*
G75*
G02*
X68575000Y-47395000I0J-75000D01*
G01*
X68575000Y-47545000D01*
G75*
G02*
X68500000Y-47620000I-75000J0D01*
G01*
X67175000Y-47620000D01*
G75*
G02*
X67100000Y-47545000I0J75000D01*
G01*
G37*
G36*
G01*
X67100000Y-47045000D02*
X67100000Y-46895000D01*
G75*
G02*
X67175000Y-46820000I75000J0D01*
G01*
X68500000Y-46820000D01*
G75*
G02*
X68575000Y-46895000I0J-75000D01*
G01*
X68575000Y-47045000D01*
G75*
G02*
X68500000Y-47120000I-75000J0D01*
G01*
X67175000Y-47120000D01*
G75*
G02*
X67100000Y-47045000I0J75000D01*
G01*
G37*
G36*
G01*
X67100000Y-46545000D02*
X67100000Y-46395000D01*
G75*
G02*
X67175000Y-46320000I75000J0D01*
G01*
X68500000Y-46320000D01*
G75*
G02*
X68575000Y-46395000I0J-75000D01*
G01*
X68575000Y-46545000D01*
G75*
G02*
X68500000Y-46620000I-75000J0D01*
G01*
X67175000Y-46620000D01*
G75*
G02*
X67100000Y-46545000I0J75000D01*
G01*
G37*
G36*
G01*
X67100000Y-46045000D02*
X67100000Y-45895000D01*
G75*
G02*
X67175000Y-45820000I75000J0D01*
G01*
X68500000Y-45820000D01*
G75*
G02*
X68575000Y-45895000I0J-75000D01*
G01*
X68575000Y-46045000D01*
G75*
G02*
X68500000Y-46120000I-75000J0D01*
G01*
X67175000Y-46120000D01*
G75*
G02*
X67100000Y-46045000I0J75000D01*
G01*
G37*
G36*
G01*
X67100000Y-45545000D02*
X67100000Y-45395000D01*
G75*
G02*
X67175000Y-45320000I75000J0D01*
G01*
X68500000Y-45320000D01*
G75*
G02*
X68575000Y-45395000I0J-75000D01*
G01*
X68575000Y-45545000D01*
G75*
G02*
X68500000Y-45620000I-75000J0D01*
G01*
X67175000Y-45620000D01*
G75*
G02*
X67100000Y-45545000I0J75000D01*
G01*
G37*
G36*
G01*
X67100000Y-45045000D02*
X67100000Y-44895000D01*
G75*
G02*
X67175000Y-44820000I75000J0D01*
G01*
X68500000Y-44820000D01*
G75*
G02*
X68575000Y-44895000I0J-75000D01*
G01*
X68575000Y-45045000D01*
G75*
G02*
X68500000Y-45120000I-75000J0D01*
G01*
X67175000Y-45120000D01*
G75*
G02*
X67100000Y-45045000I0J75000D01*
G01*
G37*
G36*
G01*
X67100000Y-44545000D02*
X67100000Y-44395000D01*
G75*
G02*
X67175000Y-44320000I75000J0D01*
G01*
X68500000Y-44320000D01*
G75*
G02*
X68575000Y-44395000I0J-75000D01*
G01*
X68575000Y-44545000D01*
G75*
G02*
X68500000Y-44620000I-75000J0D01*
G01*
X67175000Y-44620000D01*
G75*
G02*
X67100000Y-44545000I0J75000D01*
G01*
G37*
G36*
G01*
X67100000Y-44045000D02*
X67100000Y-43895000D01*
G75*
G02*
X67175000Y-43820000I75000J0D01*
G01*
X68500000Y-43820000D01*
G75*
G02*
X68575000Y-43895000I0J-75000D01*
G01*
X68575000Y-44045000D01*
G75*
G02*
X68500000Y-44120000I-75000J0D01*
G01*
X67175000Y-44120000D01*
G75*
G02*
X67100000Y-44045000I0J75000D01*
G01*
G37*
G36*
G01*
X67100000Y-43545000D02*
X67100000Y-43395000D01*
G75*
G02*
X67175000Y-43320000I75000J0D01*
G01*
X68500000Y-43320000D01*
G75*
G02*
X68575000Y-43395000I0J-75000D01*
G01*
X68575000Y-43545000D01*
G75*
G02*
X68500000Y-43620000I-75000J0D01*
G01*
X67175000Y-43620000D01*
G75*
G02*
X67100000Y-43545000I0J75000D01*
G01*
G37*
G36*
G01*
X67100000Y-43045000D02*
X67100000Y-42895000D01*
G75*
G02*
X67175000Y-42820000I75000J0D01*
G01*
X68500000Y-42820000D01*
G75*
G02*
X68575000Y-42895000I0J-75000D01*
G01*
X68575000Y-43045000D01*
G75*
G02*
X68500000Y-43120000I-75000J0D01*
G01*
X67175000Y-43120000D01*
G75*
G02*
X67100000Y-43045000I0J75000D01*
G01*
G37*
%TD*%
%TO.C,R4*%
G36*
G01*
X85655000Y-45240000D02*
X86025000Y-45240000D01*
G75*
G02*
X86160000Y-45375000I0J-135000D01*
G01*
X86160000Y-45645000D01*
G75*
G02*
X86025000Y-45780000I-135000J0D01*
G01*
X85655000Y-45780000D01*
G75*
G02*
X85520000Y-45645000I0J135000D01*
G01*
X85520000Y-45375000D01*
G75*
G02*
X85655000Y-45240000I135000J0D01*
G01*
G37*
G36*
G01*
X85655000Y-44220000D02*
X86025000Y-44220000D01*
G75*
G02*
X86160000Y-44355000I0J-135000D01*
G01*
X86160000Y-44625000D01*
G75*
G02*
X86025000Y-44760000I-135000J0D01*
G01*
X85655000Y-44760000D01*
G75*
G02*
X85520000Y-44625000I0J135000D01*
G01*
X85520000Y-44355000D01*
G75*
G02*
X85655000Y-44220000I135000J0D01*
G01*
G37*
%TD*%
D10*
%TO.C,Y1*%
X62275000Y-47075000D03*
X62275000Y-43375000D03*
%TD*%
D11*
%TO.C,U1*%
X85850000Y-51800000D03*
X86800000Y-53800000D03*
X84900000Y-53800000D03*
%TD*%
%TO.C,R3*%
G36*
G01*
X61550000Y-52025000D02*
X61550000Y-52575000D01*
G75*
G02*
X61350000Y-52775000I-200000J0D01*
G01*
X60950000Y-52775000D01*
G75*
G02*
X60750000Y-52575000I0J200000D01*
G01*
X60750000Y-52025000D01*
G75*
G02*
X60950000Y-51825000I200000J0D01*
G01*
X61350000Y-51825000D01*
G75*
G02*
X61550000Y-52025000I0J-200000D01*
G01*
G37*
G36*
G01*
X63200000Y-52025000D02*
X63200000Y-52575000D01*
G75*
G02*
X63000000Y-52775000I-200000J0D01*
G01*
X62600000Y-52775000D01*
G75*
G02*
X62400000Y-52575000I0J200000D01*
G01*
X62400000Y-52025000D01*
G75*
G02*
X62600000Y-51825000I200000J0D01*
G01*
X63000000Y-51825000D01*
G75*
G02*
X63200000Y-52025000I0J-200000D01*
G01*
G37*
%TD*%
%TO.C,R2*%
G36*
G01*
X71490000Y-38360000D02*
X71490000Y-37990000D01*
G75*
G02*
X71625000Y-37855000I135000J0D01*
G01*
X71895000Y-37855000D01*
G75*
G02*
X72030000Y-37990000I0J-135000D01*
G01*
X72030000Y-38360000D01*
G75*
G02*
X71895000Y-38495000I-135000J0D01*
G01*
X71625000Y-38495000D01*
G75*
G02*
X71490000Y-38360000I0J135000D01*
G01*
G37*
G36*
G01*
X70470000Y-38360000D02*
X70470000Y-37990000D01*
G75*
G02*
X70605000Y-37855000I135000J0D01*
G01*
X70875000Y-37855000D01*
G75*
G02*
X71010000Y-37990000I0J-135000D01*
G01*
X71010000Y-38360000D01*
G75*
G02*
X70875000Y-38495000I-135000J0D01*
G01*
X70605000Y-38495000D01*
G75*
G02*
X70470000Y-38360000I0J135000D01*
G01*
G37*
%TD*%
%TO.C,R1*%
G36*
G01*
X90225000Y-55000000D02*
X90775000Y-55000000D01*
G75*
G02*
X90975000Y-55200000I0J-200000D01*
G01*
X90975000Y-55600000D01*
G75*
G02*
X90775000Y-55800000I-200000J0D01*
G01*
X90225000Y-55800000D01*
G75*
G02*
X90025000Y-55600000I0J200000D01*
G01*
X90025000Y-55200000D01*
G75*
G02*
X90225000Y-55000000I200000J0D01*
G01*
G37*
G36*
G01*
X90225000Y-53350000D02*
X90775000Y-53350000D01*
G75*
G02*
X90975000Y-53550000I0J-200000D01*
G01*
X90975000Y-53950000D01*
G75*
G02*
X90775000Y-54150000I-200000J0D01*
G01*
X90225000Y-54150000D01*
G75*
G02*
X90025000Y-53950000I0J200000D01*
G01*
X90025000Y-53550000D01*
G75*
G02*
X90225000Y-53350000I200000J0D01*
G01*
G37*
%TD*%
%TO.C,L1*%
G36*
G01*
X65397500Y-48495000D02*
X65052500Y-48495000D01*
G75*
G02*
X64905000Y-48347500I0J147500D01*
G01*
X64905000Y-48052500D01*
G75*
G02*
X65052500Y-47905000I147500J0D01*
G01*
X65397500Y-47905000D01*
G75*
G02*
X65545000Y-48052500I0J-147500D01*
G01*
X65545000Y-48347500D01*
G75*
G02*
X65397500Y-48495000I-147500J0D01*
G01*
G37*
G36*
G01*
X65397500Y-49465000D02*
X65052500Y-49465000D01*
G75*
G02*
X64905000Y-49317500I0J147500D01*
G01*
X64905000Y-49022500D01*
G75*
G02*
X65052500Y-48875000I147500J0D01*
G01*
X65397500Y-48875000D01*
G75*
G02*
X65545000Y-49022500I0J-147500D01*
G01*
X65545000Y-49317500D01*
G75*
G02*
X65397500Y-49465000I-147500J0D01*
G01*
G37*
%TD*%
D12*
%TO.C,J1*%
X88350000Y-44420000D03*
X88350000Y-45070000D03*
X88350000Y-45720000D03*
X88350000Y-46370000D03*
X88350000Y-47020000D03*
%TD*%
%TO.C,FB1*%
G36*
G01*
X86231250Y-48292500D02*
X85468750Y-48292500D01*
G75*
G02*
X85250000Y-48073750I0J218750D01*
G01*
X85250000Y-47636250D01*
G75*
G02*
X85468750Y-47417500I218750J0D01*
G01*
X86231250Y-47417500D01*
G75*
G02*
X86450000Y-47636250I0J-218750D01*
G01*
X86450000Y-48073750D01*
G75*
G02*
X86231250Y-48292500I-218750J0D01*
G01*
G37*
G36*
G01*
X86231250Y-50417500D02*
X85468750Y-50417500D01*
G75*
G02*
X85250000Y-50198750I0J218750D01*
G01*
X85250000Y-49761250D01*
G75*
G02*
X85468750Y-49542500I218750J0D01*
G01*
X86231250Y-49542500D01*
G75*
G02*
X86450000Y-49761250I0J-218750D01*
G01*
X86450000Y-50198750D01*
G75*
G02*
X86231250Y-50417500I-218750J0D01*
G01*
G37*
%TD*%
%TO.C,D2*%
G36*
G01*
X65525000Y-52556250D02*
X65525000Y-52043750D01*
G75*
G02*
X65743750Y-51825000I218750J0D01*
G01*
X66181250Y-51825000D01*
G75*
G02*
X66400000Y-52043750I0J-218750D01*
G01*
X66400000Y-52556250D01*
G75*
G02*
X66181250Y-52775000I-218750J0D01*
G01*
X65743750Y-52775000D01*
G75*
G02*
X65525000Y-52556250I0J218750D01*
G01*
G37*
G36*
G01*
X63950000Y-52556250D02*
X63950000Y-52043750D01*
G75*
G02*
X64168750Y-51825000I218750J0D01*
G01*
X64606250Y-51825000D01*
G75*
G02*
X64825000Y-52043750I0J-218750D01*
G01*
X64825000Y-52556250D01*
G75*
G02*
X64606250Y-52775000I-218750J0D01*
G01*
X64168750Y-52775000D01*
G75*
G02*
X63950000Y-52556250I0J218750D01*
G01*
G37*
%TD*%
%TO.C,D1*%
G36*
G01*
X88518750Y-54887500D02*
X89031250Y-54887500D01*
G75*
G02*
X89250000Y-55106250I0J-218750D01*
G01*
X89250000Y-55543750D01*
G75*
G02*
X89031250Y-55762500I-218750J0D01*
G01*
X88518750Y-55762500D01*
G75*
G02*
X88300000Y-55543750I0J218750D01*
G01*
X88300000Y-55106250D01*
G75*
G02*
X88518750Y-54887500I218750J0D01*
G01*
G37*
G36*
G01*
X88518750Y-53312500D02*
X89031250Y-53312500D01*
G75*
G02*
X89250000Y-53531250I0J-218750D01*
G01*
X89250000Y-53968750D01*
G75*
G02*
X89031250Y-54187500I-218750J0D01*
G01*
X88518750Y-54187500D01*
G75*
G02*
X88300000Y-53968750I0J218750D01*
G01*
X88300000Y-53531250D01*
G75*
G02*
X88518750Y-53312500I218750J0D01*
G01*
G37*
%TD*%
%TO.C,C11*%
G36*
G01*
X62955000Y-49045000D02*
X62955000Y-48705000D01*
G75*
G02*
X63095000Y-48565000I140000J0D01*
G01*
X63375000Y-48565000D01*
G75*
G02*
X63515000Y-48705000I0J-140000D01*
G01*
X63515000Y-49045000D01*
G75*
G02*
X63375000Y-49185000I-140000J0D01*
G01*
X63095000Y-49185000D01*
G75*
G02*
X62955000Y-49045000I0J140000D01*
G01*
G37*
G36*
G01*
X61995000Y-49045000D02*
X61995000Y-48705000D01*
G75*
G02*
X62135000Y-48565000I140000J0D01*
G01*
X62415000Y-48565000D01*
G75*
G02*
X62555000Y-48705000I0J-140000D01*
G01*
X62555000Y-49045000D01*
G75*
G02*
X62415000Y-49185000I-140000J0D01*
G01*
X62135000Y-49185000D01*
G75*
G02*
X61995000Y-49045000I0J140000D01*
G01*
G37*
%TD*%
%TO.C,C10*%
G36*
G01*
X62960000Y-41745000D02*
X62960000Y-41405000D01*
G75*
G02*
X63100000Y-41265000I140000J0D01*
G01*
X63380000Y-41265000D01*
G75*
G02*
X63520000Y-41405000I0J-140000D01*
G01*
X63520000Y-41745000D01*
G75*
G02*
X63380000Y-41885000I-140000J0D01*
G01*
X63100000Y-41885000D01*
G75*
G02*
X62960000Y-41745000I0J140000D01*
G01*
G37*
G36*
G01*
X62000000Y-41745000D02*
X62000000Y-41405000D01*
G75*
G02*
X62140000Y-41265000I140000J0D01*
G01*
X62420000Y-41265000D01*
G75*
G02*
X62560000Y-41405000I0J-140000D01*
G01*
X62560000Y-41745000D01*
G75*
G02*
X62420000Y-41885000I-140000J0D01*
G01*
X62140000Y-41885000D01*
G75*
G02*
X62000000Y-41745000I0J140000D01*
G01*
G37*
%TD*%
%TO.C,C9*%
G36*
G01*
X66445000Y-46525000D02*
X66105000Y-46525000D01*
G75*
G02*
X65965000Y-46385000I0J140000D01*
G01*
X65965000Y-46105000D01*
G75*
G02*
X66105000Y-45965000I140000J0D01*
G01*
X66445000Y-45965000D01*
G75*
G02*
X66585000Y-46105000I0J-140000D01*
G01*
X66585000Y-46385000D01*
G75*
G02*
X66445000Y-46525000I-140000J0D01*
G01*
G37*
G36*
G01*
X66445000Y-47485000D02*
X66105000Y-47485000D01*
G75*
G02*
X65965000Y-47345000I0J140000D01*
G01*
X65965000Y-47065000D01*
G75*
G02*
X66105000Y-46925000I140000J0D01*
G01*
X66445000Y-46925000D01*
G75*
G02*
X66585000Y-47065000I0J-140000D01*
G01*
X66585000Y-47345000D01*
G75*
G02*
X66445000Y-47485000I-140000J0D01*
G01*
G37*
%TD*%
%TO.C,C8*%
G36*
G01*
X65395000Y-46520000D02*
X65055000Y-46520000D01*
G75*
G02*
X64915000Y-46380000I0J140000D01*
G01*
X64915000Y-46100000D01*
G75*
G02*
X65055000Y-45960000I140000J0D01*
G01*
X65395000Y-45960000D01*
G75*
G02*
X65535000Y-46100000I0J-140000D01*
G01*
X65535000Y-46380000D01*
G75*
G02*
X65395000Y-46520000I-140000J0D01*
G01*
G37*
G36*
G01*
X65395000Y-47480000D02*
X65055000Y-47480000D01*
G75*
G02*
X64915000Y-47340000I0J140000D01*
G01*
X64915000Y-47060000D01*
G75*
G02*
X65055000Y-46920000I140000J0D01*
G01*
X65395000Y-46920000D01*
G75*
G02*
X65535000Y-47060000I0J-140000D01*
G01*
X65535000Y-47340000D01*
G75*
G02*
X65395000Y-47480000I-140000J0D01*
G01*
G37*
%TD*%
%TO.C,C7*%
G36*
G01*
X69200000Y-40220000D02*
X69200000Y-39880000D01*
G75*
G02*
X69340000Y-39740000I140000J0D01*
G01*
X69620000Y-39740000D01*
G75*
G02*
X69760000Y-39880000I0J-140000D01*
G01*
X69760000Y-40220000D01*
G75*
G02*
X69620000Y-40360000I-140000J0D01*
G01*
X69340000Y-40360000D01*
G75*
G02*
X69200000Y-40220000I0J140000D01*
G01*
G37*
G36*
G01*
X68240000Y-40220000D02*
X68240000Y-39880000D01*
G75*
G02*
X68380000Y-39740000I140000J0D01*
G01*
X68660000Y-39740000D01*
G75*
G02*
X68800000Y-39880000I0J-140000D01*
G01*
X68800000Y-40220000D01*
G75*
G02*
X68660000Y-40360000I-140000J0D01*
G01*
X68380000Y-40360000D01*
G75*
G02*
X68240000Y-40220000I0J140000D01*
G01*
G37*
%TD*%
%TO.C,C6*%
G36*
G01*
X77530000Y-43020000D02*
X77870000Y-43020000D01*
G75*
G02*
X78010000Y-43160000I0J-140000D01*
G01*
X78010000Y-43440000D01*
G75*
G02*
X77870000Y-43580000I-140000J0D01*
G01*
X77530000Y-43580000D01*
G75*
G02*
X77390000Y-43440000I0J140000D01*
G01*
X77390000Y-43160000D01*
G75*
G02*
X77530000Y-43020000I140000J0D01*
G01*
G37*
G36*
G01*
X77530000Y-42060000D02*
X77870000Y-42060000D01*
G75*
G02*
X78010000Y-42200000I0J-140000D01*
G01*
X78010000Y-42480000D01*
G75*
G02*
X77870000Y-42620000I-140000J0D01*
G01*
X77530000Y-42620000D01*
G75*
G02*
X77390000Y-42480000I0J140000D01*
G01*
X77390000Y-42200000D01*
G75*
G02*
X77530000Y-42060000I140000J0D01*
G01*
G37*
%TD*%
%TO.C,C5*%
G36*
G01*
X74700000Y-51230000D02*
X74700000Y-51570000D01*
G75*
G02*
X74560000Y-51710000I-140000J0D01*
G01*
X74280000Y-51710000D01*
G75*
G02*
X74140000Y-51570000I0J140000D01*
G01*
X74140000Y-51230000D01*
G75*
G02*
X74280000Y-51090000I140000J0D01*
G01*
X74560000Y-51090000D01*
G75*
G02*
X74700000Y-51230000I0J-140000D01*
G01*
G37*
G36*
G01*
X75660000Y-51230000D02*
X75660000Y-51570000D01*
G75*
G02*
X75520000Y-51710000I-140000J0D01*
G01*
X75240000Y-51710000D01*
G75*
G02*
X75100000Y-51570000I0J140000D01*
G01*
X75100000Y-51230000D01*
G75*
G02*
X75240000Y-51090000I140000J0D01*
G01*
X75520000Y-51090000D01*
G75*
G02*
X75660000Y-51230000I0J-140000D01*
G01*
G37*
%TD*%
%TO.C,C4*%
G36*
G01*
X66970000Y-41755000D02*
X66970000Y-42095000D01*
G75*
G02*
X66830000Y-42235000I-140000J0D01*
G01*
X66550000Y-42235000D01*
G75*
G02*
X66410000Y-42095000I0J140000D01*
G01*
X66410000Y-41755000D01*
G75*
G02*
X66550000Y-41615000I140000J0D01*
G01*
X66830000Y-41615000D01*
G75*
G02*
X66970000Y-41755000I0J-140000D01*
G01*
G37*
G36*
G01*
X67930000Y-41755000D02*
X67930000Y-42095000D01*
G75*
G02*
X67790000Y-42235000I-140000J0D01*
G01*
X67510000Y-42235000D01*
G75*
G02*
X67370000Y-42095000I0J140000D01*
G01*
X67370000Y-41755000D01*
G75*
G02*
X67510000Y-41615000I140000J0D01*
G01*
X67790000Y-41615000D01*
G75*
G02*
X67930000Y-41755000I0J-140000D01*
G01*
G37*
%TD*%
%TO.C,C3*%
G36*
G01*
X67425000Y-39525000D02*
X66925000Y-39525000D01*
G75*
G02*
X66700000Y-39300000I0J225000D01*
G01*
X66700000Y-38850000D01*
G75*
G02*
X66925000Y-38625000I225000J0D01*
G01*
X67425000Y-38625000D01*
G75*
G02*
X67650000Y-38850000I0J-225000D01*
G01*
X67650000Y-39300000D01*
G75*
G02*
X67425000Y-39525000I-225000J0D01*
G01*
G37*
G36*
G01*
X67425000Y-41075000D02*
X66925000Y-41075000D01*
G75*
G02*
X66700000Y-40850000I0J225000D01*
G01*
X66700000Y-40400000D01*
G75*
G02*
X66925000Y-40175000I225000J0D01*
G01*
X67425000Y-40175000D01*
G75*
G02*
X67650000Y-40400000I0J-225000D01*
G01*
X67650000Y-40850000D01*
G75*
G02*
X67425000Y-41075000I-225000J0D01*
G01*
G37*
%TD*%
%TO.C,C2*%
G36*
G01*
X85575000Y-55125000D02*
X85575000Y-55625000D01*
G75*
G02*
X85350000Y-55850000I-225000J0D01*
G01*
X84900000Y-55850000D01*
G75*
G02*
X84675000Y-55625000I0J225000D01*
G01*
X84675000Y-55125000D01*
G75*
G02*
X84900000Y-54900000I225000J0D01*
G01*
X85350000Y-54900000D01*
G75*
G02*
X85575000Y-55125000I0J-225000D01*
G01*
G37*
G36*
G01*
X87125000Y-55125000D02*
X87125000Y-55625000D01*
G75*
G02*
X86900000Y-55850000I-225000J0D01*
G01*
X86450000Y-55850000D01*
G75*
G02*
X86225000Y-55625000I0J225000D01*
G01*
X86225000Y-55125000D01*
G75*
G02*
X86450000Y-54900000I225000J0D01*
G01*
X86900000Y-54900000D01*
G75*
G02*
X87125000Y-55125000I0J-225000D01*
G01*
G37*
%TD*%
%TO.C,C1*%
G36*
G01*
X82975000Y-53125000D02*
X83475000Y-53125000D01*
G75*
G02*
X83700000Y-53350000I0J-225000D01*
G01*
X83700000Y-53800000D01*
G75*
G02*
X83475000Y-54025000I-225000J0D01*
G01*
X82975000Y-54025000D01*
G75*
G02*
X82750000Y-53800000I0J225000D01*
G01*
X82750000Y-53350000D01*
G75*
G02*
X82975000Y-53125000I225000J0D01*
G01*
G37*
G36*
G01*
X82975000Y-51575000D02*
X83475000Y-51575000D01*
G75*
G02*
X83700000Y-51800000I0J-225000D01*
G01*
X83700000Y-52250000D01*
G75*
G02*
X83475000Y-52475000I-225000J0D01*
G01*
X82975000Y-52475000D01*
G75*
G02*
X82750000Y-52250000I0J225000D01*
G01*
X82750000Y-51800000D01*
G75*
G02*
X82975000Y-51575000I225000J0D01*
G01*
G37*
%TD*%
M02*
