%TF.GenerationSoftware,KiCad,Pcbnew,(5.1.7)-1*%
%TF.CreationDate,2020-11-21T17:57:00+01:00*%
%TF.ProjectId,SimpleTM32,53696d70-6c65-4544-9d33-322e6b696361,rev?*%
%TF.SameCoordinates,Original*%
%TF.FileFunction,Legend,Top*%
%TF.FilePolarity,Positive*%
%FSLAX46Y46*%
G04 Gerber Fmt 4.6, Leading zero omitted, Abs format (unit mm)*
G04 Created by KiCad (PCBNEW (5.1.7)-1) date 2020-11-21 17:57:00*
%MOMM*%
%LPD*%
G01*
G04 APERTURE LIST*
%ADD10C,0.150000*%
%ADD11C,0.120000*%
%ADD12C,0.125000*%
%ADD13C,0.250000*%
G04 APERTURE END LIST*
D10*
X73045238Y-35878571D02*
X73188095Y-35926190D01*
X73235714Y-35973809D01*
X73283333Y-36069047D01*
X73283333Y-36211904D01*
X73235714Y-36307142D01*
X73188095Y-36354761D01*
X73092857Y-36402380D01*
X72711904Y-36402380D01*
X72711904Y-35402380D01*
X73045238Y-35402380D01*
X73140476Y-35450000D01*
X73188095Y-35497619D01*
X73235714Y-35592857D01*
X73235714Y-35688095D01*
X73188095Y-35783333D01*
X73140476Y-35830952D01*
X73045238Y-35878571D01*
X72711904Y-35878571D01*
X73902380Y-35402380D02*
X73997619Y-35402380D01*
X74092857Y-35450000D01*
X74140476Y-35497619D01*
X74188095Y-35592857D01*
X74235714Y-35783333D01*
X74235714Y-36021428D01*
X74188095Y-36211904D01*
X74140476Y-36307142D01*
X74092857Y-36354761D01*
X73997619Y-36402380D01*
X73902380Y-36402380D01*
X73807142Y-36354761D01*
X73759523Y-36307142D01*
X73711904Y-36211904D01*
X73664285Y-36021428D01*
X73664285Y-35783333D01*
X73711904Y-35592857D01*
X73759523Y-35497619D01*
X73807142Y-35450000D01*
X73902380Y-35402380D01*
D11*
X84950000Y-54550000D02*
G75*
G03*
X84950000Y-54550000I-50000J0D01*
G01*
X87150000Y-47000000D02*
G75*
G03*
X87150000Y-47000000I-50000J0D01*
G01*
X66850000Y-42950000D02*
G75*
G03*
X66850000Y-42950000I-50000J0D01*
G01*
D10*
X87669047Y-56021428D02*
X88430952Y-56021428D01*
X88050000Y-56402380D02*
X88050000Y-55640476D01*
X66269047Y-51571428D02*
X67030952Y-51571428D01*
X66650000Y-51952380D02*
X66650000Y-51190476D01*
D12*
X68977291Y-48003147D02*
X69381352Y-48407208D01*
X69435227Y-48514958D01*
X69435227Y-48622708D01*
X69381352Y-48730457D01*
X69327478Y-48784332D01*
X70081725Y-48030085D02*
X69812351Y-48299459D01*
X69246665Y-47733773D01*
X70539661Y-47464399D02*
X70539661Y-47518274D01*
X70485786Y-47626024D01*
X70431911Y-47679898D01*
X70324162Y-47733773D01*
X70216412Y-47733773D01*
X70135600Y-47706836D01*
X70000913Y-47626024D01*
X69920101Y-47545211D01*
X69839288Y-47410524D01*
X69812351Y-47329712D01*
X69812351Y-47221963D01*
X69866226Y-47114213D01*
X69920101Y-47060338D01*
X70027850Y-47006463D01*
X70081725Y-47006463D01*
X70431911Y-46548528D02*
X70835972Y-46952589D01*
X70889847Y-47060338D01*
X70889847Y-47168088D01*
X70835972Y-47275837D01*
X70782097Y-47329712D01*
X71536345Y-46575465D02*
X71266971Y-46844839D01*
X70701285Y-46279154D01*
X71994280Y-46009780D02*
X71994280Y-46063654D01*
X71940406Y-46171404D01*
X71886531Y-46225279D01*
X71778781Y-46279154D01*
X71671032Y-46279154D01*
X71590219Y-46252216D01*
X71455532Y-46171404D01*
X71374720Y-46090592D01*
X71293908Y-45955905D01*
X71266971Y-45875093D01*
X71266971Y-45767343D01*
X71320845Y-45659593D01*
X71374720Y-45605719D01*
X71482470Y-45551844D01*
X71536345Y-45551844D01*
X71886531Y-45093908D02*
X72290592Y-45497969D01*
X72344467Y-45605719D01*
X72344467Y-45713468D01*
X72290592Y-45821218D01*
X72236717Y-45875093D01*
X72990964Y-45120845D02*
X72721590Y-45390219D01*
X72155905Y-44824534D01*
X73448900Y-44555160D02*
X73448900Y-44609035D01*
X73395025Y-44716784D01*
X73341150Y-44770659D01*
X73233401Y-44824534D01*
X73125651Y-44824534D01*
X73044839Y-44797597D01*
X72910152Y-44716784D01*
X72829340Y-44635972D01*
X72748528Y-44501285D01*
X72721590Y-44420473D01*
X72721590Y-44312723D01*
X72775465Y-44204974D01*
X72829340Y-44151099D01*
X72937089Y-44097224D01*
X72990964Y-44097224D01*
X73341150Y-43639288D02*
X73745211Y-44043349D01*
X73799086Y-44151099D01*
X73799086Y-44258849D01*
X73745211Y-44366598D01*
X73691337Y-44420473D01*
X74445584Y-43666226D02*
X74176210Y-43935600D01*
X73610524Y-43369914D01*
X74903520Y-43100540D02*
X74903520Y-43154415D01*
X74849645Y-43262165D01*
X74795770Y-43316039D01*
X74688021Y-43369914D01*
X74580271Y-43369914D01*
X74499459Y-43342977D01*
X74364772Y-43262165D01*
X74283960Y-43181352D01*
X74203147Y-43046665D01*
X74176210Y-42965853D01*
X74176210Y-42858104D01*
X74230085Y-42750354D01*
X74283960Y-42696479D01*
X74391709Y-42642604D01*
X74445584Y-42642604D01*
D13*
X79404985Y-36579761D02*
X79613318Y-36627380D01*
X79970461Y-36627380D01*
X80119270Y-36579761D01*
X80196651Y-36532142D01*
X80279985Y-36436904D01*
X80291889Y-36341666D01*
X80232366Y-36246428D01*
X80166889Y-36198809D01*
X80029985Y-36151190D01*
X79750223Y-36103571D01*
X79613318Y-36055952D01*
X79547842Y-36008333D01*
X79488318Y-35913095D01*
X79500223Y-35817857D01*
X79583556Y-35722619D01*
X79660937Y-35675000D01*
X79809747Y-35627380D01*
X80166889Y-35627380D01*
X80375223Y-35675000D01*
X80809747Y-35627380D02*
X81666889Y-35627380D01*
X81113318Y-36627380D02*
X81238318Y-35627380D01*
X82041889Y-36627380D02*
X82166889Y-35627380D01*
X82577604Y-36341666D01*
X83166889Y-35627380D01*
X83041889Y-36627380D01*
X83738318Y-35627380D02*
X84666889Y-35627380D01*
X84119270Y-36008333D01*
X84333556Y-36008333D01*
X84470461Y-36055952D01*
X84535937Y-36103571D01*
X84595461Y-36198809D01*
X84565699Y-36436904D01*
X84482366Y-36532142D01*
X84404985Y-36579761D01*
X84256175Y-36627380D01*
X83827604Y-36627380D01*
X83690699Y-36579761D01*
X83625223Y-36532142D01*
X85226413Y-35722619D02*
X85303794Y-35675000D01*
X85452604Y-35627380D01*
X85809747Y-35627380D01*
X85946651Y-35675000D01*
X86012127Y-35722619D01*
X86071651Y-35817857D01*
X86059747Y-35913095D01*
X85970461Y-36055952D01*
X85041889Y-36627380D01*
X85970461Y-36627380D01*
X87178794Y-36103571D02*
X86678794Y-36103571D01*
X86613318Y-36627380D02*
X86738318Y-35627380D01*
X87452604Y-35627380D01*
X88684747Y-36627380D02*
X87827604Y-36627380D01*
X88256175Y-36627380D02*
X88381175Y-35627380D01*
X88220461Y-35770238D01*
X88065699Y-35865476D01*
X87916889Y-35913095D01*
X79250223Y-37853571D02*
X79458556Y-37901190D01*
X79524032Y-37948809D01*
X79583556Y-38044047D01*
X79565699Y-38186904D01*
X79482366Y-38282142D01*
X79404985Y-38329761D01*
X79256175Y-38377380D01*
X78684747Y-38377380D01*
X78809747Y-37377380D01*
X79309747Y-37377380D01*
X79446651Y-37425000D01*
X79512127Y-37472619D01*
X79571651Y-37567857D01*
X79559747Y-37663095D01*
X79476413Y-37758333D01*
X79399032Y-37805952D01*
X79250223Y-37853571D01*
X78750223Y-37853571D01*
X81041889Y-38377380D02*
X80601413Y-37901190D01*
X80184747Y-38377380D02*
X80309747Y-37377380D01*
X80881175Y-37377380D01*
X81018080Y-37425000D01*
X81083556Y-37472619D01*
X81143080Y-37567857D01*
X81125223Y-37710714D01*
X81041889Y-37805952D01*
X80964508Y-37853571D01*
X80815699Y-37901190D01*
X80244270Y-37901190D01*
X81750223Y-37853571D02*
X82250223Y-37853571D01*
X82399032Y-38377380D02*
X81684747Y-38377380D01*
X81809747Y-37377380D01*
X82524032Y-37377380D01*
X83006175Y-38091666D02*
X83720461Y-38091666D01*
X82827604Y-38377380D02*
X83452604Y-37377380D01*
X83827604Y-38377380D01*
X84327604Y-38377380D02*
X84452604Y-37377380D01*
X85184747Y-38377380D02*
X84613318Y-37805952D01*
X85309747Y-37377380D02*
X84381175Y-37948809D01*
X86238318Y-37377380D02*
X86524032Y-37377380D01*
X86660937Y-37425000D01*
X86791889Y-37520238D01*
X86839508Y-37710714D01*
X86797842Y-38044047D01*
X86702604Y-38234523D01*
X86547842Y-38329761D01*
X86399032Y-38377380D01*
X86113318Y-38377380D01*
X85976413Y-38329761D01*
X85845461Y-38234523D01*
X85797842Y-38044047D01*
X85839508Y-37710714D01*
X85934747Y-37520238D01*
X86089508Y-37425000D01*
X86238318Y-37377380D01*
X87524032Y-37377380D02*
X87422842Y-38186904D01*
X87482366Y-38282142D01*
X87547842Y-38329761D01*
X87684747Y-38377380D01*
X87970461Y-38377380D01*
X88119270Y-38329761D01*
X88196651Y-38282142D01*
X88279985Y-38186904D01*
X88381175Y-37377380D01*
X88881175Y-37377380D02*
X89738318Y-37377380D01*
X89184747Y-38377380D02*
X89309747Y-37377380D01*
D10*
X88519047Y-58671428D02*
X89280952Y-58671428D01*
X91059047Y-58671428D02*
X91820952Y-58671428D01*
X91440000Y-59052380D02*
X91440000Y-58290476D01*
X88519047Y-32761428D02*
X89280952Y-32761428D01*
X91059047Y-32761428D02*
X91820952Y-32761428D01*
X91440000Y-33142380D02*
X91440000Y-32380476D01*
X93002380Y-56909508D02*
X92002380Y-56784508D01*
X92002380Y-56403556D01*
X92050000Y-56314270D01*
X92097619Y-56272604D01*
X92192857Y-56236889D01*
X92335714Y-56254747D01*
X92430952Y-56314270D01*
X92478571Y-56367842D01*
X92526190Y-56469032D01*
X92526190Y-56849985D01*
X92002380Y-55594032D02*
X92002380Y-55403556D01*
X92050000Y-55314270D01*
X92145238Y-55230937D01*
X92335714Y-55207127D01*
X92669047Y-55248794D01*
X92859523Y-55320223D01*
X92954761Y-55427366D01*
X93002380Y-55528556D01*
X93002380Y-55719032D01*
X92954761Y-55808318D01*
X92859523Y-55891651D01*
X92669047Y-55915461D01*
X92335714Y-55873794D01*
X92145238Y-55802366D01*
X92050000Y-55695223D01*
X92002380Y-55594032D01*
X92002380Y-54832127D02*
X93002380Y-54719032D01*
X92288095Y-54439270D01*
X93002380Y-54338080D01*
X92002380Y-53974985D01*
X92478571Y-53653556D02*
X92478571Y-53320223D01*
X93002380Y-53242842D02*
X93002380Y-53719032D01*
X92002380Y-53594032D01*
X92002380Y-53117842D01*
X93002380Y-52242842D02*
X92526190Y-52516651D01*
X93002380Y-52814270D02*
X92002380Y-52689270D01*
X92002380Y-52308318D01*
X92050000Y-52219032D01*
X92097619Y-52177366D01*
X92192857Y-52141651D01*
X92335714Y-52159508D01*
X92430952Y-52219032D01*
X92478571Y-52272604D01*
X92526190Y-52373794D01*
X92526190Y-52754747D01*
D11*
%TO.C,U2*%
X68390000Y-42560000D02*
X67100000Y-42560000D01*
X68390000Y-42110000D02*
X68390000Y-42560000D01*
X68840000Y-42110000D02*
X68390000Y-42110000D01*
X75610000Y-42110000D02*
X75610000Y-42560000D01*
X75160000Y-42110000D02*
X75610000Y-42110000D01*
X68390000Y-49330000D02*
X68390000Y-48880000D01*
X68840000Y-49330000D02*
X68390000Y-49330000D01*
X75610000Y-49330000D02*
X75610000Y-48880000D01*
X75160000Y-49330000D02*
X75610000Y-49330000D01*
%TO.C,R4*%
X85460000Y-44846359D02*
X85460000Y-45153641D01*
X86220000Y-44846359D02*
X86220000Y-45153641D01*
%TO.C,Y1*%
X60475000Y-42175000D02*
X60475000Y-47925000D01*
X64075000Y-42175000D02*
X60475000Y-42175000D01*
X64075000Y-47925000D02*
X64075000Y-42175000D01*
%TO.C,U1*%
X87430000Y-52040000D02*
X87430000Y-53500000D01*
X84270000Y-52040000D02*
X84270000Y-54200000D01*
X84270000Y-52040000D02*
X85200000Y-52040000D01*
X87430000Y-52040000D02*
X86500000Y-52040000D01*
%TO.C,R3*%
X62212258Y-51777500D02*
X61737742Y-51777500D01*
X62212258Y-52822500D02*
X61737742Y-52822500D01*
%TO.C,R2*%
X71096359Y-38555000D02*
X71403641Y-38555000D01*
X71096359Y-37795000D02*
X71403641Y-37795000D01*
%TO.C,R1*%
X89977500Y-54337742D02*
X89977500Y-54812258D01*
X91022500Y-54337742D02*
X91022500Y-54812258D01*
%TO.C,JP1*%
X72250000Y-34550000D02*
X72250000Y-37350000D01*
X72250000Y-37350000D02*
X70250000Y-37350000D01*
X70250000Y-37350000D02*
X70250000Y-34550000D01*
X70250000Y-34550000D02*
X72250000Y-34550000D01*
%TO.C,J3*%
X92770000Y-59630000D02*
X92770000Y-60960000D01*
X91440000Y-59630000D02*
X92770000Y-59630000D01*
X90170000Y-59630000D02*
X90170000Y-62290000D01*
X90170000Y-62290000D02*
X54550000Y-62290000D01*
X90170000Y-59630000D02*
X54550000Y-59630000D01*
X54550000Y-59630000D02*
X54550000Y-62290000D01*
%TO.C,J2*%
X92770000Y-29150000D02*
X92770000Y-30480000D01*
X91440000Y-29150000D02*
X92770000Y-29150000D01*
X90170000Y-29150000D02*
X90170000Y-31810000D01*
X90170000Y-31810000D02*
X54550000Y-31810000D01*
X90170000Y-29150000D02*
X54550000Y-29150000D01*
X54550000Y-29150000D02*
X54550000Y-31810000D01*
D10*
%TO.C,J1*%
X87850000Y-43920000D02*
X87850000Y-42920000D01*
X87850000Y-47520000D02*
X87850000Y-48520000D01*
X87425000Y-47520000D02*
X87850000Y-47520000D01*
X87425000Y-46795000D02*
X87425000Y-47520000D01*
X91000000Y-41570000D02*
X89600000Y-41570000D01*
X93550000Y-41570000D02*
X93400000Y-41570000D01*
X93550000Y-41870000D02*
X93550000Y-41570000D01*
X94000000Y-41870000D02*
X93550000Y-41870000D01*
X93550000Y-49570000D02*
X94000000Y-49570000D01*
X93550000Y-49870000D02*
X93550000Y-49570000D01*
X93400000Y-49870000D02*
X93550000Y-49870000D01*
X89600000Y-49870000D02*
X91000000Y-49870000D01*
D11*
%TO.C,FB1*%
X86410000Y-49317122D02*
X86410000Y-48517878D01*
X85290000Y-49317122D02*
X85290000Y-48517878D01*
%TO.C,D2*%
X63690000Y-53035000D02*
X65975000Y-53035000D01*
X63690000Y-51565000D02*
X63690000Y-53035000D01*
X65975000Y-51565000D02*
X63690000Y-51565000D01*
%TO.C,D1*%
X88040000Y-53052500D02*
X88040000Y-55337500D01*
X89510000Y-53052500D02*
X88040000Y-53052500D01*
X89510000Y-55337500D02*
X89510000Y-53052500D01*
%TO.C,C11*%
X62647164Y-49235000D02*
X62862836Y-49235000D01*
X62647164Y-48515000D02*
X62862836Y-48515000D01*
%TO.C,C10*%
X62652164Y-41935000D02*
X62867836Y-41935000D01*
X62652164Y-41215000D02*
X62867836Y-41215000D01*
%TO.C,C9*%
X66635000Y-46832836D02*
X66635000Y-46617164D01*
X65915000Y-46832836D02*
X65915000Y-46617164D01*
%TO.C,C8*%
X65585000Y-46827836D02*
X65585000Y-46612164D01*
X64865000Y-46827836D02*
X64865000Y-46612164D01*
%TO.C,C7*%
X68892164Y-40410000D02*
X69107836Y-40410000D01*
X68892164Y-39690000D02*
X69107836Y-39690000D01*
%TO.C,C6*%
X77340000Y-42712164D02*
X77340000Y-42927836D01*
X78060000Y-42712164D02*
X78060000Y-42927836D01*
%TO.C,C5*%
X75007836Y-51040000D02*
X74792164Y-51040000D01*
X75007836Y-51760000D02*
X74792164Y-51760000D01*
%TO.C,C4*%
X67277836Y-41565000D02*
X67062164Y-41565000D01*
X67277836Y-42285000D02*
X67062164Y-42285000D01*
%TO.C,C3*%
X67685000Y-39990580D02*
X67685000Y-39709420D01*
X66665000Y-39990580D02*
X66665000Y-39709420D01*
%TO.C,C2*%
X86040580Y-54865000D02*
X85759420Y-54865000D01*
X86040580Y-55885000D02*
X85759420Y-55885000D01*
%TO.C,C1*%
X82715000Y-52659420D02*
X82715000Y-52940580D01*
X83735000Y-52659420D02*
X83735000Y-52940580D01*
%TO.C,U2*%
D10*
X73438095Y-39352380D02*
X73438095Y-40161904D01*
X73485714Y-40257142D01*
X73533333Y-40304761D01*
X73628571Y-40352380D01*
X73819047Y-40352380D01*
X73914285Y-40304761D01*
X73961904Y-40257142D01*
X74009523Y-40161904D01*
X74009523Y-39352380D01*
X74438095Y-39447619D02*
X74485714Y-39400000D01*
X74580952Y-39352380D01*
X74819047Y-39352380D01*
X74914285Y-39400000D01*
X74961904Y-39447619D01*
X75009523Y-39542857D01*
X75009523Y-39638095D01*
X74961904Y-39780952D01*
X74390476Y-40352380D01*
X75009523Y-40352380D01*
%TO.C,R4*%
X84123333Y-45452380D02*
X83790000Y-44976190D01*
X83551904Y-45452380D02*
X83551904Y-44452380D01*
X83932857Y-44452380D01*
X84028095Y-44500000D01*
X84075714Y-44547619D01*
X84123333Y-44642857D01*
X84123333Y-44785714D01*
X84075714Y-44880952D01*
X84028095Y-44928571D01*
X83932857Y-44976190D01*
X83551904Y-44976190D01*
X84980476Y-44785714D02*
X84980476Y-45452380D01*
X84742380Y-44404761D02*
X84504285Y-45119047D01*
X85123333Y-45119047D01*
%TO.C,Y1*%
X58948809Y-45226190D02*
X58948809Y-45702380D01*
X58615476Y-44702380D02*
X58948809Y-45226190D01*
X59282142Y-44702380D01*
X60139285Y-45702380D02*
X59567857Y-45702380D01*
X59853571Y-45702380D02*
X59853571Y-44702380D01*
X59758333Y-44845238D01*
X59663095Y-44940476D01*
X59567857Y-44988095D01*
%TO.C,U1*%
X83428095Y-50002380D02*
X83428095Y-50811904D01*
X83475714Y-50907142D01*
X83523333Y-50954761D01*
X83618571Y-51002380D01*
X83809047Y-51002380D01*
X83904285Y-50954761D01*
X83951904Y-50907142D01*
X83999523Y-50811904D01*
X83999523Y-50002380D01*
X84999523Y-51002380D02*
X84428095Y-51002380D01*
X84713809Y-51002380D02*
X84713809Y-50002380D01*
X84618571Y-50145238D01*
X84523333Y-50240476D01*
X84428095Y-50288095D01*
%TO.C,R3*%
X59333333Y-52752380D02*
X59000000Y-52276190D01*
X58761904Y-52752380D02*
X58761904Y-51752380D01*
X59142857Y-51752380D01*
X59238095Y-51800000D01*
X59285714Y-51847619D01*
X59333333Y-51942857D01*
X59333333Y-52085714D01*
X59285714Y-52180952D01*
X59238095Y-52228571D01*
X59142857Y-52276190D01*
X58761904Y-52276190D01*
X59666666Y-51752380D02*
X60285714Y-51752380D01*
X59952380Y-52133333D01*
X60095238Y-52133333D01*
X60190476Y-52180952D01*
X60238095Y-52228571D01*
X60285714Y-52323809D01*
X60285714Y-52561904D01*
X60238095Y-52657142D01*
X60190476Y-52704761D01*
X60095238Y-52752380D01*
X59809523Y-52752380D01*
X59714285Y-52704761D01*
X59666666Y-52657142D01*
%TO.C,R2*%
X71083333Y-39827380D02*
X70750000Y-39351190D01*
X70511904Y-39827380D02*
X70511904Y-38827380D01*
X70892857Y-38827380D01*
X70988095Y-38875000D01*
X71035714Y-38922619D01*
X71083333Y-39017857D01*
X71083333Y-39160714D01*
X71035714Y-39255952D01*
X70988095Y-39303571D01*
X70892857Y-39351190D01*
X70511904Y-39351190D01*
X71464285Y-38922619D02*
X71511904Y-38875000D01*
X71607142Y-38827380D01*
X71845238Y-38827380D01*
X71940476Y-38875000D01*
X71988095Y-38922619D01*
X72035714Y-39017857D01*
X72035714Y-39113095D01*
X71988095Y-39255952D01*
X71416666Y-39827380D01*
X72035714Y-39827380D01*
%TO.C,R1*%
X90942380Y-52006666D02*
X90466190Y-52340000D01*
X90942380Y-52578095D02*
X89942380Y-52578095D01*
X89942380Y-52197142D01*
X89990000Y-52101904D01*
X90037619Y-52054285D01*
X90132857Y-52006666D01*
X90275714Y-52006666D01*
X90370952Y-52054285D01*
X90418571Y-52101904D01*
X90466190Y-52197142D01*
X90466190Y-52578095D01*
X90942380Y-51054285D02*
X90942380Y-51625714D01*
X90942380Y-51340000D02*
X89942380Y-51340000D01*
X90085238Y-51435238D01*
X90180476Y-51530476D01*
X90228095Y-51625714D01*
%TO.C,L1*%
X65058333Y-50727380D02*
X64582142Y-50727380D01*
X64582142Y-49727380D01*
X65915476Y-50727380D02*
X65344047Y-50727380D01*
X65629761Y-50727380D02*
X65629761Y-49727380D01*
X65534523Y-49870238D01*
X65439285Y-49965476D01*
X65344047Y-50013095D01*
%TO.C,FB1*%
X82826666Y-47718571D02*
X82493333Y-47718571D01*
X82493333Y-48242380D02*
X82493333Y-47242380D01*
X82969523Y-47242380D01*
X83683809Y-47718571D02*
X83826666Y-47766190D01*
X83874285Y-47813809D01*
X83921904Y-47909047D01*
X83921904Y-48051904D01*
X83874285Y-48147142D01*
X83826666Y-48194761D01*
X83731428Y-48242380D01*
X83350476Y-48242380D01*
X83350476Y-47242380D01*
X83683809Y-47242380D01*
X83779047Y-47290000D01*
X83826666Y-47337619D01*
X83874285Y-47432857D01*
X83874285Y-47528095D01*
X83826666Y-47623333D01*
X83779047Y-47670952D01*
X83683809Y-47718571D01*
X83350476Y-47718571D01*
X84874285Y-48242380D02*
X84302857Y-48242380D01*
X84588571Y-48242380D02*
X84588571Y-47242380D01*
X84493333Y-47385238D01*
X84398095Y-47480476D01*
X84302857Y-47528095D01*
%TO.C,D2*%
X67261904Y-52752380D02*
X67261904Y-51752380D01*
X67500000Y-51752380D01*
X67642857Y-51800000D01*
X67738095Y-51895238D01*
X67785714Y-51990476D01*
X67833333Y-52180952D01*
X67833333Y-52323809D01*
X67785714Y-52514285D01*
X67738095Y-52609523D01*
X67642857Y-52704761D01*
X67500000Y-52752380D01*
X67261904Y-52752380D01*
X68214285Y-51847619D02*
X68261904Y-51800000D01*
X68357142Y-51752380D01*
X68595238Y-51752380D01*
X68690476Y-51800000D01*
X68738095Y-51847619D01*
X68785714Y-51942857D01*
X68785714Y-52038095D01*
X68738095Y-52180952D01*
X68166666Y-52752380D01*
X68785714Y-52752380D01*
%TO.C,D1*%
X89232380Y-52588095D02*
X88232380Y-52588095D01*
X88232380Y-52350000D01*
X88280000Y-52207142D01*
X88375238Y-52111904D01*
X88470476Y-52064285D01*
X88660952Y-52016666D01*
X88803809Y-52016666D01*
X88994285Y-52064285D01*
X89089523Y-52111904D01*
X89184761Y-52207142D01*
X89232380Y-52350000D01*
X89232380Y-52588095D01*
X89232380Y-51064285D02*
X89232380Y-51635714D01*
X89232380Y-51350000D02*
X88232380Y-51350000D01*
X88375238Y-51445238D01*
X88470476Y-51540476D01*
X88518095Y-51635714D01*
%TO.C,C11*%
X59807142Y-49582142D02*
X59759523Y-49629761D01*
X59616666Y-49677380D01*
X59521428Y-49677380D01*
X59378571Y-49629761D01*
X59283333Y-49534523D01*
X59235714Y-49439285D01*
X59188095Y-49248809D01*
X59188095Y-49105952D01*
X59235714Y-48915476D01*
X59283333Y-48820238D01*
X59378571Y-48725000D01*
X59521428Y-48677380D01*
X59616666Y-48677380D01*
X59759523Y-48725000D01*
X59807142Y-48772619D01*
X60759523Y-49677380D02*
X60188095Y-49677380D01*
X60473809Y-49677380D02*
X60473809Y-48677380D01*
X60378571Y-48820238D01*
X60283333Y-48915476D01*
X60188095Y-48963095D01*
X61711904Y-49677380D02*
X61140476Y-49677380D01*
X61426190Y-49677380D02*
X61426190Y-48677380D01*
X61330952Y-48820238D01*
X61235714Y-48915476D01*
X61140476Y-48963095D01*
%TO.C,C10*%
X59682142Y-41682142D02*
X59634523Y-41729761D01*
X59491666Y-41777380D01*
X59396428Y-41777380D01*
X59253571Y-41729761D01*
X59158333Y-41634523D01*
X59110714Y-41539285D01*
X59063095Y-41348809D01*
X59063095Y-41205952D01*
X59110714Y-41015476D01*
X59158333Y-40920238D01*
X59253571Y-40825000D01*
X59396428Y-40777380D01*
X59491666Y-40777380D01*
X59634523Y-40825000D01*
X59682142Y-40872619D01*
X60634523Y-41777380D02*
X60063095Y-41777380D01*
X60348809Y-41777380D02*
X60348809Y-40777380D01*
X60253571Y-40920238D01*
X60158333Y-41015476D01*
X60063095Y-41063095D01*
X61253571Y-40777380D02*
X61348809Y-40777380D01*
X61444047Y-40825000D01*
X61491666Y-40872619D01*
X61539285Y-40967857D01*
X61586904Y-41158333D01*
X61586904Y-41396428D01*
X61539285Y-41586904D01*
X61491666Y-41682142D01*
X61444047Y-41729761D01*
X61348809Y-41777380D01*
X61253571Y-41777380D01*
X61158333Y-41729761D01*
X61110714Y-41682142D01*
X61063095Y-41586904D01*
X61015476Y-41396428D01*
X61015476Y-41158333D01*
X61063095Y-40967857D01*
X61110714Y-40872619D01*
X61158333Y-40825000D01*
X61253571Y-40777380D01*
%TO.C,C9*%
D12*
X66685714Y-45158333D02*
X66723809Y-45196428D01*
X66761904Y-45310714D01*
X66761904Y-45386904D01*
X66723809Y-45501190D01*
X66647619Y-45577380D01*
X66571428Y-45615476D01*
X66419047Y-45653571D01*
X66304761Y-45653571D01*
X66152380Y-45615476D01*
X66076190Y-45577380D01*
X66000000Y-45501190D01*
X65961904Y-45386904D01*
X65961904Y-45310714D01*
X66000000Y-45196428D01*
X66038095Y-45158333D01*
X66761904Y-44777380D02*
X66761904Y-44625000D01*
X66723809Y-44548809D01*
X66685714Y-44510714D01*
X66571428Y-44434523D01*
X66419047Y-44396428D01*
X66114285Y-44396428D01*
X66038095Y-44434523D01*
X66000000Y-44472619D01*
X65961904Y-44548809D01*
X65961904Y-44701190D01*
X66000000Y-44777380D01*
X66038095Y-44815476D01*
X66114285Y-44853571D01*
X66304761Y-44853571D01*
X66380952Y-44815476D01*
X66419047Y-44777380D01*
X66457142Y-44701190D01*
X66457142Y-44548809D01*
X66419047Y-44472619D01*
X66380952Y-44434523D01*
X66304761Y-44396428D01*
%TO.C,C8*%
X65510714Y-45158333D02*
X65548809Y-45196428D01*
X65586904Y-45310714D01*
X65586904Y-45386904D01*
X65548809Y-45501190D01*
X65472619Y-45577380D01*
X65396428Y-45615476D01*
X65244047Y-45653571D01*
X65129761Y-45653571D01*
X64977380Y-45615476D01*
X64901190Y-45577380D01*
X64825000Y-45501190D01*
X64786904Y-45386904D01*
X64786904Y-45310714D01*
X64825000Y-45196428D01*
X64863095Y-45158333D01*
X65129761Y-44701190D02*
X65091666Y-44777380D01*
X65053571Y-44815476D01*
X64977380Y-44853571D01*
X64939285Y-44853571D01*
X64863095Y-44815476D01*
X64825000Y-44777380D01*
X64786904Y-44701190D01*
X64786904Y-44548809D01*
X64825000Y-44472619D01*
X64863095Y-44434523D01*
X64939285Y-44396428D01*
X64977380Y-44396428D01*
X65053571Y-44434523D01*
X65091666Y-44472619D01*
X65129761Y-44548809D01*
X65129761Y-44701190D01*
X65167857Y-44777380D01*
X65205952Y-44815476D01*
X65282142Y-44853571D01*
X65434523Y-44853571D01*
X65510714Y-44815476D01*
X65548809Y-44777380D01*
X65586904Y-44701190D01*
X65586904Y-44548809D01*
X65548809Y-44472619D01*
X65510714Y-44434523D01*
X65434523Y-44396428D01*
X65282142Y-44396428D01*
X65205952Y-44434523D01*
X65167857Y-44472619D01*
X65129761Y-44548809D01*
%TO.C,C7*%
D10*
X68833333Y-39307142D02*
X68785714Y-39354761D01*
X68642857Y-39402380D01*
X68547619Y-39402380D01*
X68404761Y-39354761D01*
X68309523Y-39259523D01*
X68261904Y-39164285D01*
X68214285Y-38973809D01*
X68214285Y-38830952D01*
X68261904Y-38640476D01*
X68309523Y-38545238D01*
X68404761Y-38450000D01*
X68547619Y-38402380D01*
X68642857Y-38402380D01*
X68785714Y-38450000D01*
X68833333Y-38497619D01*
X69166666Y-38402380D02*
X69833333Y-38402380D01*
X69404761Y-39402380D01*
%TO.C,C6*%
X77533333Y-41607142D02*
X77485714Y-41654761D01*
X77342857Y-41702380D01*
X77247619Y-41702380D01*
X77104761Y-41654761D01*
X77009523Y-41559523D01*
X76961904Y-41464285D01*
X76914285Y-41273809D01*
X76914285Y-41130952D01*
X76961904Y-40940476D01*
X77009523Y-40845238D01*
X77104761Y-40750000D01*
X77247619Y-40702380D01*
X77342857Y-40702380D01*
X77485714Y-40750000D01*
X77533333Y-40797619D01*
X78390476Y-40702380D02*
X78200000Y-40702380D01*
X78104761Y-40750000D01*
X78057142Y-40797619D01*
X77961904Y-40940476D01*
X77914285Y-41130952D01*
X77914285Y-41511904D01*
X77961904Y-41607142D01*
X78009523Y-41654761D01*
X78104761Y-41702380D01*
X78295238Y-41702380D01*
X78390476Y-41654761D01*
X78438095Y-41607142D01*
X78485714Y-41511904D01*
X78485714Y-41273809D01*
X78438095Y-41178571D01*
X78390476Y-41130952D01*
X78295238Y-41083333D01*
X78104761Y-41083333D01*
X78009523Y-41130952D01*
X77961904Y-41178571D01*
X77914285Y-41273809D01*
%TO.C,C5*%
X74733333Y-53007142D02*
X74685714Y-53054761D01*
X74542857Y-53102380D01*
X74447619Y-53102380D01*
X74304761Y-53054761D01*
X74209523Y-52959523D01*
X74161904Y-52864285D01*
X74114285Y-52673809D01*
X74114285Y-52530952D01*
X74161904Y-52340476D01*
X74209523Y-52245238D01*
X74304761Y-52150000D01*
X74447619Y-52102380D01*
X74542857Y-52102380D01*
X74685714Y-52150000D01*
X74733333Y-52197619D01*
X75638095Y-52102380D02*
X75161904Y-52102380D01*
X75114285Y-52578571D01*
X75161904Y-52530952D01*
X75257142Y-52483333D01*
X75495238Y-52483333D01*
X75590476Y-52530952D01*
X75638095Y-52578571D01*
X75685714Y-52673809D01*
X75685714Y-52911904D01*
X75638095Y-53007142D01*
X75590476Y-53054761D01*
X75495238Y-53102380D01*
X75257142Y-53102380D01*
X75161904Y-53054761D01*
X75114285Y-53007142D01*
%TO.C,C4*%
X65058333Y-42257142D02*
X65010714Y-42304761D01*
X64867857Y-42352380D01*
X64772619Y-42352380D01*
X64629761Y-42304761D01*
X64534523Y-42209523D01*
X64486904Y-42114285D01*
X64439285Y-41923809D01*
X64439285Y-41780952D01*
X64486904Y-41590476D01*
X64534523Y-41495238D01*
X64629761Y-41400000D01*
X64772619Y-41352380D01*
X64867857Y-41352380D01*
X65010714Y-41400000D01*
X65058333Y-41447619D01*
X65915476Y-41685714D02*
X65915476Y-42352380D01*
X65677380Y-41304761D02*
X65439285Y-42019047D01*
X66058333Y-42019047D01*
%TO.C,C3*%
X65333333Y-39482142D02*
X65285714Y-39529761D01*
X65142857Y-39577380D01*
X65047619Y-39577380D01*
X64904761Y-39529761D01*
X64809523Y-39434523D01*
X64761904Y-39339285D01*
X64714285Y-39148809D01*
X64714285Y-39005952D01*
X64761904Y-38815476D01*
X64809523Y-38720238D01*
X64904761Y-38625000D01*
X65047619Y-38577380D01*
X65142857Y-38577380D01*
X65285714Y-38625000D01*
X65333333Y-38672619D01*
X65666666Y-38577380D02*
X66285714Y-38577380D01*
X65952380Y-38958333D01*
X66095238Y-38958333D01*
X66190476Y-39005952D01*
X66238095Y-39053571D01*
X66285714Y-39148809D01*
X66285714Y-39386904D01*
X66238095Y-39482142D01*
X66190476Y-39529761D01*
X66095238Y-39577380D01*
X65809523Y-39577380D01*
X65714285Y-39529761D01*
X65666666Y-39482142D01*
%TO.C,C2*%
X83263333Y-55737142D02*
X83215714Y-55784761D01*
X83072857Y-55832380D01*
X82977619Y-55832380D01*
X82834761Y-55784761D01*
X82739523Y-55689523D01*
X82691904Y-55594285D01*
X82644285Y-55403809D01*
X82644285Y-55260952D01*
X82691904Y-55070476D01*
X82739523Y-54975238D01*
X82834761Y-54880000D01*
X82977619Y-54832380D01*
X83072857Y-54832380D01*
X83215714Y-54880000D01*
X83263333Y-54927619D01*
X83644285Y-54927619D02*
X83691904Y-54880000D01*
X83787142Y-54832380D01*
X84025238Y-54832380D01*
X84120476Y-54880000D01*
X84168095Y-54927619D01*
X84215714Y-55022857D01*
X84215714Y-55118095D01*
X84168095Y-55260952D01*
X83596666Y-55832380D01*
X84215714Y-55832380D01*
%TO.C,C1*%
X81383333Y-53157142D02*
X81335714Y-53204761D01*
X81192857Y-53252380D01*
X81097619Y-53252380D01*
X80954761Y-53204761D01*
X80859523Y-53109523D01*
X80811904Y-53014285D01*
X80764285Y-52823809D01*
X80764285Y-52680952D01*
X80811904Y-52490476D01*
X80859523Y-52395238D01*
X80954761Y-52300000D01*
X81097619Y-52252380D01*
X81192857Y-52252380D01*
X81335714Y-52300000D01*
X81383333Y-52347619D01*
X82335714Y-53252380D02*
X81764285Y-53252380D01*
X82050000Y-53252380D02*
X82050000Y-52252380D01*
X81954761Y-52395238D01*
X81859523Y-52490476D01*
X81764285Y-52538095D01*
%TD*%
M02*
